<svg width="16" height="15" viewBox="0 0 16 15" fill="none" xmlns="http://www.w3.org/2000/svg">
<path d="M15.4697 6.99744C15.274 5.78923 13.8686 5.17273 12.7443 5.67638L11.5649 6.21029C11.0131 6.46067 10.4141 6.59026 9.80812 6.59026C9.2021 6.59026 8.6031 6.46067 8.05137 6.21029L6.85817 5.67638C5.73385 5.17273 4.32845 5.78923 4.1328 6.99744C4.1086 7.09829 4.09932 7.20211 4.10525 7.30565C4.102 7.40913 4.11125 7.51265 4.1328 7.61392C4.32845 8.81938 5.73385 9.43863 6.85817 8.93223L8.04036 8.40101C8.59208 8.15062 9.19108 8.02111 9.7971 8.02111C10.4031 8.02111 11.0021 8.15062 11.5538 8.40101L12.7333 8.93223C13.8576 9.43863 15.263 8.81938 15.4586 7.61392C15.4851 7.51344 15.4953 7.40935 15.4889 7.30565C15.4928 7.20201 15.4826 7.09836 15.4586 6.99744H15.4697Z" fill="#FE6260"/>
<path d="M2.86093 3.93585L4.04036 3.40188C4.59246 3.15288 5.19131 3.02412 5.7971 3.02412C6.40289 3.02412 7.00174 3.15288 7.55384 3.40188L8.73327 3.93585C9.85759 4.44225 11.263 3.823 11.4614 2.61755C11.4855 2.51667 11.4948 2.41281 11.4889 2.30927C11.4924 2.20578 11.4832 2.1023 11.4614 2.00106C11.263 0.792855 9.85759 0.176354 8.73327 0.680003L7.55384 1.21391C7.00211 1.4643 6.40312 1.59388 5.7971 1.59388C5.19108 1.59388 4.59208 1.4643 4.04036 1.21391L2.86093 0.680003C1.73661 0.176354 0.33121 0.765334 0.132801 2.00106C0.1086 2.10191 0.0993227 2.20573 0.105251 2.30927C0.101999 2.41275 0.111245 2.51628 0.132801 2.61755C0.33121 3.823 1.73661 4.44225 2.86093 3.93585Z" fill="#FE6260"/>
<path d="M8.73315 10.6776L7.55372 11.2115C7.00161 11.4605 6.40276 11.5893 5.79697 11.5893C5.19119 11.5893 4.59234 11.4605 4.04023 11.2115L2.8608 10.6776C1.73648 10.1712 0.331083 10.7904 0.132674 11.9959C0.108742 12.0968 0.0994686 12.2005 0.105124 12.3041C0.101758 12.4085 0.111004 12.5129 0.132674 12.6151C0.331083 13.8206 1.73648 14.4398 2.8608 13.9334L4.04023 13.3994C4.59234 13.1504 5.19119 13.0217 5.79697 13.0217C6.40276 13.0217 7.00161 13.1504 7.55372 13.3994L8.73315 13.9334C9.85746 14.4398 11.2629 13.8206 11.4613 12.6151C11.4852 12.5133 11.4945 12.4085 11.4888 12.3041C11.4921 12.2006 11.4828 12.0971 11.4613 11.9959C11.2629 10.7904 9.85746 10.1712 8.73315 10.6776Z" fill="#FE6260"/>
</svg>
