<svg width="105" height="21" viewBox="0 0 105 21" fill="none" xmlns="http://www.w3.org/2000/svg">
<g clip-path="url(#clip0_104_1731)">
<path d="M16.8069 8.17362C16.5882 6.82326 15.0175 6.13423 13.7609 6.69713L12.4427 7.29385C11.8261 7.5737 11.1566 7.71853 10.4793 7.71853C9.80196 7.71853 9.13249 7.5737 8.51585 7.29385L7.18226 6.69713C5.92567 6.13423 4.35492 6.82326 4.13625 8.17362C4.1092 8.28633 4.09883 8.40236 4.10546 8.51809C4.10182 8.63374 4.11215 8.74945 4.13625 8.86263C4.35492 10.2099 5.92567 10.902 7.18226 10.336L8.50354 9.74232C9.12018 9.46247 9.78965 9.31772 10.467 9.31772C11.1443 9.31772 11.8138 9.46247 12.4304 9.74232L13.7486 10.336C15.0052 10.902 16.5759 10.2099 16.7946 8.86263C16.8242 8.75032 16.8356 8.63399 16.8285 8.51809C16.8327 8.40225 16.8213 8.28641 16.7946 8.17362H16.8069Z" fill="#FE6260"/>
<path d="M3.18534 4.34008L4.50353 3.74329C5.1206 3.46499 5.7899 3.32109 6.46696 3.32109C7.14402 3.32109 7.81333 3.46499 8.43039 3.74329L9.74858 4.34008C11.0052 4.90606 12.5759 4.21396 12.7977 2.86668C12.8246 2.75394 12.835 2.63785 12.8285 2.52213C12.8323 2.40647 12.822 2.29081 12.7977 2.17766C12.5759 0.827311 11.0052 0.138277 9.74858 0.70118L8.43039 1.2979C7.81375 1.57775 7.14428 1.72258 6.46696 1.72258C5.78965 1.72258 5.12018 1.57775 4.50353 1.2979L3.18534 0.70118C1.92875 0.138277 0.357999 0.796551 0.136247 2.17766C0.109198 2.29038 0.0988293 2.40641 0.105456 2.52213C0.101821 2.63779 0.112154 2.7535 0.136247 2.86668C0.357999 4.21396 1.92875 4.90606 3.18534 4.34008Z" fill="#FE6260"/>
<path d="M9.74844 12.6984L8.43025 13.2952C7.81319 13.5735 7.14388 13.7174 6.46682 13.7174C5.78976 13.7174 5.12046 13.5735 4.50339 13.2952L3.1852 12.6984C1.92861 12.1325 0.357857 12.8246 0.136105 14.1719C0.109357 14.2846 0.0989925 14.4006 0.105314 14.5163C0.101551 14.633 0.111884 14.7497 0.136105 14.864C0.357857 16.2112 1.92861 16.9033 3.1852 16.3374L4.50339 15.7406C5.12046 15.4623 5.78976 15.3184 6.46682 15.3184C7.14388 15.3184 7.81319 15.4623 8.43025 15.7406L9.74844 16.3374C11.005 16.9033 12.5758 16.2112 12.7975 14.864C12.8243 14.7501 12.8347 14.6331 12.8283 14.5163C12.832 14.4007 12.8216 14.285 12.7975 14.1719C12.5758 12.8246 11.005 12.1325 9.74844 12.6984Z" fill="#FE6260"/>
<path d="M23.1035 19.9033V17.7962C23.7059 17.8613 24.3117 17.89 24.9176 17.8824C26.1711 17.8824 26.8117 17.2979 26.8117 15.0678V0.5H29.2756V15.4031C29.2756 17.91 28.3824 20.0816 25.0377 20.0816C24.3888 20.0827 23.7412 20.023 23.1035 19.9033Z" fill="#1B1C1E"/>
<path d="M34.1035 0.5H36.5674V14.425H34.1035V0.5Z" fill="#1B1C1E"/>
<path d="M54.1035 0.5H56.5674V14.425H54.1035V0.5Z" fill="#1B1C1E"/>
<path d="M72.1035 10.7553L74.4196 10.0017C75.1742 12.0902 77.0406 13.2622 79.9973 13.2622C82.5074 13.2622 83.8471 12.5086 83.8471 11.0321C83.8471 9.72485 83.148 9.14038 81.3093 8.99889L77.21 8.69129C74.1978 8.41138 72.7195 6.96261 72.7195 4.70791C72.7195 2.09026 75.1156 0.5 79.0764 0.5C82.9263 0.5 85.4918 2.0626 86.2433 4.49877L83.9303 5.28C83.2034 3.49594 81.6697 2.43781 78.9378 2.43781C76.5386 2.43781 75.1156 3.21912 75.1156 4.61254C75.1156 5.75373 76.0088 6.42119 77.7952 6.59037L81.9499 6.89797C85.0452 7.17788 86.2618 8.56823 86.2618 10.826C86.2618 13.5267 84.1705 15.2554 79.794 15.2554C75.6762 15.2678 73.1384 13.6498 72.1035 10.7553Z" fill="#1B1C1E"/>
<path d="M90.1035 8.63286V0.5H92.5674V8.38377C92.5674 11.6689 94.517 12.7578 96.639 12.7578C100.236 12.7578 101.909 10.1647 101.909 7.43634V0.5H104.391V14.425H101.992V11.3059C101.102 13.5053 98.8689 14.8433 96.1647 14.8433C91.9514 14.8464 90.1035 12.6439 90.1035 8.63286Z" fill="#1B1C1E"/>
<path d="M70.8954 0.5H60.1035V2.76392H63.5068V14.4249H65.9491V2.76392H70.8954V0.5Z" fill="#1B1C1E"/>
<path d="M51.0783 0.506158H47.4718C46.7332 0.83724 46.0754 1.3244 45.5436 1.93405C45.0119 2.5437 44.6189 3.26132 44.3919 4.03737V0.5H42.1035V14.4311H44.5674V8.7775C44.5674 6.96575 44.7645 5.15702 46.018 3.87434C46.7634 3.07766 47.789 2.81009 49.4059 2.76703H51.0814L51.0783 0.506158Z" fill="#1B1C1E"/>
</g>
<defs>
<clipPath id="clip0_104_1731">
<rect width="104.571" height="20" fill="white" transform="translate(0.103516 0.5)"/>
</clipPath>
</defs>
</svg>
