<svg width="31" height="31" viewBox="0 0 31 31" fill="none" xmlns="http://www.w3.org/2000/svg">
<mask id="mask0_94_3552" style="mask-type:alpha" maskUnits="userSpaceOnUse" x="0" y="0" width="31" height="31">
<rect x="0.103516" y="0.5" width="30" height="30" rx="5" fill="white"/>
</mask>
<g mask="url(#mask0_94_3552)">
<path d="M15.1035 44.5C31.1198 44.5 44.1035 31.5163 44.1035 15.5C44.1035 -0.516256 31.1198 -13.5 15.1035 -13.5C-0.912741 -13.5 -13.8965 -0.516256 -13.8965 15.5C-13.8965 31.5163 -0.912741 44.5 15.1035 44.5Z" fill="url(#paint0_linear_94_3552)"/>
<path d="M21.9075 21.6614L16.6584 8.97637C16.5681 8.69701 16.3928 8.4528 16.157 8.27778C15.9213 8.10277 15.6368 8.00566 15.3432 8H14.879C14.5854 8.00566 14.3009 8.10277 14.0652 8.27778C13.8294 8.4528 13.6542 8.69701 13.5638 8.97637L11.28 14.5035H9.55227C9.30356 14.5045 9.06527 14.6035 8.88905 14.779C8.71282 14.9545 8.61286 15.1924 8.61082 15.4411V15.454C8.61286 15.7027 8.71282 15.9406 8.88905 16.1161C9.06527 16.2916 9.30356 16.3906 9.55227 16.3916H10.4808L8.30174 21.6614C8.26052 21.7769 8.23867 21.8984 8.23708 22.0209C8.22693 22.2816 8.31985 22.5357 8.49572 22.7283C8.58596 22.8204 8.69482 22.8922 8.81503 22.9388C8.93525 22.9854 9.06403 23.0058 9.19276 22.9986C9.38761 22.9961 9.57691 22.9333 9.73461 22.8188C9.89963 22.6966 10.0287 22.5322 10.1083 22.3429L12.5047 16.3929H14.169C14.4177 16.3919 14.656 16.2929 14.8322 16.1174C15.0085 15.9419 15.1084 15.704 15.1105 15.4553V15.4295C15.1084 15.1808 15.0085 14.9429 14.8322 14.7674C14.656 14.5919 14.4177 14.4929 14.169 14.4919H13.2806L15.1105 9.92817L20.1009 22.3429C20.1806 22.5322 20.3097 22.6966 20.4747 22.8188C20.6324 22.9333 20.8217 22.9961 21.0165 22.9986C21.1453 23.0058 21.274 22.9854 21.3943 22.9388C21.5145 22.8922 21.6233 22.8204 21.7136 22.7283C21.8894 22.5357 21.9824 22.2816 21.9722 22.0209C21.977 21.8978 21.9549 21.7752 21.9075 21.6614Z" fill="white"/>
</g>
<rect x="1.10352" y="1.5" width="28" height="28" rx="4" stroke="black" stroke-opacity="0.1" stroke-width="2"/>
<defs>
<linearGradient id="paint0_linear_94_3552" x1="38.7095" y1="-0.334001" x2="-4.44249" y2="35.974" gradientUnits="userSpaceOnUse">
<stop stop-color="#B6509E"/>
<stop offset="1" stop-color="#2EBAC6"/>
</linearGradient>
</defs>
</svg>
